<?xml version="1.0" encoding="utf-8"?>
<!-- Generator: Adobe Illustrator 25.3.1, SVG Export Plug-In . SVG Version: 6.00 Build 0)  -->
<svg version="1.1" id="Layer_1" xmlns="http://www.w3.org/2000/svg" xmlns:xlink="http://www.w3.org/1999/xlink" x="0px" y="0px"
	 viewBox="0 0 250 150" style="enable-background:new 0 0 250 150;" xml:space="preserve">
<style type="text/css">
	.st0{fill:#0B2229;}
</style>
<g>
	<polygon class="st0" points="2.8,97.2 26.7,52.5 49.4,97.3 39.8,97.2 26.5,71.3 18.6,88 29.3,88.1 23.9,97.3 	"/>
	<path class="st0" d="M124.8,52.8c2.4,0,4.4,0.9,6.1,2.7c1.7,1.8,2.6,4,2.6,6.6v26.2h12.2c3.4,0,6.3-1.3,8.7-3.9
		c2.4-2.6,3.6-5.7,3.6-9.4V62.1c0-2.5,0.9-4.7,2.6-6.6c1.7-1.8,3.8-2.7,6.1-2.7V75c0,6.1-2.1,11.3-6.2,15.6
		c-4.1,4.3-9.1,6.4-14.8,6.4h-20.9V52.8z"/>
	<path class="st0" d="M238.9,88.7h-4c-3.4,0-6.3-1.3-8.7-4c-1.4-1.6-2.4-3.3-3-5.2c0.4,0.1,0.7,0.2,1.1,0.2h6.9
		c2.3,0,4.2-0.9,5.9-2.6c1.6-1.7,2.4-3.8,2.4-6.3h-15.2c-0.4,0-0.7,0.1-1.1,0.2c0.6-1.9,1.5-3.6,2.9-5.1c2.4-2.7,5.3-4,8.7-4h4
		c2.3,0,4.2-0.9,5.9-2.6c1.6-1.7,2.4-3.8,2.4-6.3h-12.3c-5.7,0-10.7,2.2-14.8,6.6c-4.1,4.4-6.2,9.6-6.2,15.8
		c0,6.2,2.1,11.4,6.2,15.8c4.1,4.3,9,6.5,14.8,6.5h12.3c0-2.5-0.8-4.5-2.4-6.3C243.1,89.5,241.2,88.7,238.9,88.7z"/>
	<path class="st0" d="M78.9,90.9c-1.1-1.1-2.2-1.9-3.6-2.3v-0.1h-0.3c-0.7-0.2-1.5-0.3-2.3-0.3h-7.1v-26c0-2.6-0.9-4.8-2.6-6.6
		c-1.7-1.8-3.8-2.8-6.1-2.8v35.4v9.2h18.4h6.1C81.5,94.9,80.6,92.7,78.9,90.9z"/>
	<path class="st0" d="M113.3,90.9c-1.1-1.1-2.2-1.9-3.6-2.3v-0.1h-0.3c-0.7-0.2-1.5-0.3-2.3-0.3H100v-26c0-2.6-0.9-4.8-2.6-6.6
		c-1.7-1.8-3.8-2.8-6.1-2.8v35.4v9.2h18.4h6.1C115.9,94.9,115,92.7,113.3,90.9z"/>
	<path class="st0" d="M201.3,78.6c4.7-2.1,8-6.8,8-12.3v0c0-7.4-6-13.4-13.3-13.4h-20.3c0,5.2,4.2,9.5,9.4,9.5h10.8c2.2,0,4,1.8,4,4
		v0c0,2-1.6,3.7-3.5,3.9c-0.1,0-0.3,0-0.4,0H185h-9.4v6v3.4v8.2c0,5.2,4.2,9.5,9.4,9.5V79.7h3.4L201,96.9h11.3L201.3,78.6z"/>
</g>
</svg>
